<svg width="24" height="24" viewBox="0 0 24 24" fill="none" xmlns="http://www.w3.org/2000/svg">
<rect width="24" height="24" rx="12" fill="#420083"/>
<g clip-path="url(#clip0_72_481)">
<path d="M11.9975 2C14.3112 1.99925 16.5536 2.80083 18.3425 4.26813C20.1315 5.73543 21.3562 7.77766 21.8081 10.0468C22.2601 12.3159 21.9111 14.6716 20.8209 16.7123C19.7306 18.753 17.9664 20.3525 15.8289 21.2382C13.6915 22.124 11.313 22.2411 9.09889 21.5697C6.88474 20.8983 4.97192 19.4799 3.68638 17.5562C2.40084 15.6325 1.82214 13.3225 2.04889 11.02C2.27563 8.71741 3.2938 6.56472 4.92989 4.92873C6.80444 3.05428 9.34658 2.00086 11.9975 2ZM11.9342 14.0691L10.4797 18.0927C10.4441 18.1936 10.3886 18.2864 10.3165 18.3654C10.2445 18.4445 10.1572 18.5083 10.0601 18.5531C9.86481 18.6447 9.64116 18.655 9.4383 18.5818C9.23543 18.5086 9.06995 18.3578 8.97825 18.1625C8.88723 17.966 8.8773 17.7416 8.95061 17.5378L9.9637 14.7273C10.0448 14.5159 10.1084 14.2982 10.1539 14.0764C10.1948 13.8492 10.2242 13.62 10.2419 13.3898C10.2808 12.9782 10.3084 12.5324 10.3299 12.1044C10.3513 11.6764 10.3662 11.2615 10.3772 10.9182C10.3917 10.4902 10.2764 10.4625 9.93316 10.3815L9.86043 10.3651L6.9317 9.81346C6.82005 9.80178 6.71202 9.76713 6.61442 9.71167C6.51682 9.65621 6.43175 9.58115 6.36457 9.49121C6.29739 9.40127 6.24955 9.2984 6.22407 9.18907C6.19858 9.07974 6.196 8.96632 6.21649 8.85594C6.23698 8.74557 6.2801 8.64063 6.34312 8.54773C6.40614 8.45483 6.48771 8.37598 6.5827 8.31615C6.67768 8.25631 6.78402 8.21678 6.89503 8.20005C7.00603 8.18331 7.1193 8.18973 7.2277 8.21891L10.3742 8.80946C10.4997 8.82073 10.6215 8.83564 10.7502 8.85018C11.1374 8.90327 11.5275 8.93205 11.9182 8.93637C12.4046 8.92909 12.8902 8.89485 13.3728 8.83382C13.5182 8.81746 13.6575 8.79964 13.7957 8.78655L16.7648 8.23018C16.9224 8.19642 17.0866 8.21086 17.2359 8.27163C17.3853 8.33239 17.5129 8.43667 17.6022 8.57091C17.6915 8.70514 17.7383 8.86314 17.7367 9.02435C17.735 9.18557 17.6849 9.34256 17.5928 9.47491V9.48473C17.5324 9.57294 17.4552 9.64837 17.3656 9.70671C17.276 9.76505 17.1757 9.80516 17.0706 9.82473L14.2266 10.3585C14.1321 10.3796 14.0477 10.3949 13.9721 10.4058C13.6761 10.4564 13.5295 10.4822 13.5473 10.9036C13.5604 11.2113 13.5979 11.5789 13.6466 11.9629C13.7037 12.4135 13.7782 12.892 13.8564 13.3295C13.8965 13.5791 13.9508 13.8263 14.019 14.0698C14.0841 14.2909 14.1473 14.5171 14.2452 14.7891L15.2393 17.5385C15.282 17.6401 15.3036 17.7493 15.3027 17.8595C15.3019 17.9697 15.2787 18.0785 15.2346 18.1795C15.1904 18.2804 15.1262 18.3713 15.0458 18.4467C14.9655 18.5221 14.8707 18.5804 14.7671 18.618C14.6635 18.6556 14.5534 18.6718 14.4434 18.6656C14.3334 18.6594 14.2258 18.6309 14.1272 18.5818C14.0285 18.5328 13.9408 18.4642 13.8695 18.3803C13.7981 18.2963 13.7446 18.1987 13.7121 18.0935L12.2513 14.0771L12.0888 13.7793L11.9262 14.0702L11.9342 14.0691ZM11.9975 5.36146C12.33 5.36107 12.6523 5.47602 12.9096 5.68671C13.1668 5.89739 13.343 6.19077 13.4081 6.51683C13.4732 6.84288 13.4232 7.18143 13.2666 7.47474C13.1101 7.76806 12.8566 7.998 12.5495 8.12535C12.2423 8.2527 11.9005 8.26958 11.5823 8.17311C11.2641 8.07665 10.9893 7.8728 10.8046 7.59634C10.6198 7.31988 10.5367 6.9879 10.5694 6.65702C10.6021 6.32614 10.7485 6.01682 10.9837 5.78182C11.2529 5.5123 11.6181 5.36071 11.999 5.36037L11.9975 5.36146ZM17.9117 6.08218C16.5453 4.71113 14.7456 3.85637 12.8195 3.66356C10.8935 3.47075 8.96012 3.95183 7.349 5.02481C5.73789 6.09779 4.54872 7.69627 3.98416 9.54782C3.41959 11.3994 3.51458 13.3894 4.25292 15.1788C4.99126 16.9681 6.32727 18.4461 8.03325 19.3607C9.73924 20.2754 11.7096 20.5702 13.6086 20.1948C15.5075 19.8194 17.2176 18.7971 18.4472 17.3022C19.6769 15.8072 20.3501 13.9321 20.3521 11.9964C20.3543 9.7795 19.4766 7.65237 17.9117 6.08218Z" fill="white"/>
</g>
<defs>
<clipPath id="clip0_72_481">
<rect width="20" height="20" fill="white" transform="translate(2 2)"/>
</clipPath>
</defs>
</svg>
